<svg width="110" height="44" viewBox="0 0 110 44" fill="none" xmlns="http://www.w3.org/2000/svg">
<path d="M10.068 18.7904C32.2438 2.74951 63.3825 -0.139728 84.2082 2.22302C93.6143 3.29006 102.308 5.66663 105.55 10.7837C108.339 15.1819 106.41 21.9883 99.0804 27.9368C89.8443 35.4345 74.8359 38.687 62.9899 40.5859C51.5548 42.419 40.5836 42.9419 30.9023 42.181C21.38 41.4327 12.1874 39.5748 6.74188 35.7362C0.955985 31.6575 0.295103 24.0215 10.9024 16.8086C21.3715 9.69061 36.6165 6.71006 48.5586 5.00995C62.0855 3.08472 74.8591 2.5415 86.6333 3.189C87.9439 3.26138 89.1828 1.85161 87.8743 1.78103C74.9567 1.07594 60.8565 1.79825 45.9404 4.11833C34.4195 5.90967 20.2871 9.15771 10.137 15.7461C0.908527 21.736 -1.56477 28.7129 1.23895 33.4424C4.76525 39.3948 15.5924 42.0878 26.3701 43.2804C37.1339 44.4724 49.5826 44.0019 62.6622 41.912C74.7502 39.9799 89.7592 36.6138 99.6477 29.2293C107.331 23.4914 110.192 16.8623 108.826 12.0044C107.105 5.87699 98.5371 2.69428 88.8684 1.25005C67.1693 -1.99172 32.611 0.816565 8.65248 18.1685C7.49256 19.0084 8.8963 19.6383 10.068 18.7904Z" fill="#FEA36F"/>
</svg>
