<svg width="148" height="29" viewBox="0 0 148 29" fill="none" xmlns="http://www.w3.org/2000/svg">
<path opacity="0.9" d="M13.0749 6.13788C13.4577 5.37226 14.5423 5.40416 14.8932 6.13788L16.9987 10.3807L21.6563 11.0506C22.4857 11.1782 22.8047 12.1991 22.1986 12.8052L18.849 16.091L19.6465 20.7167C19.7741 21.5461 18.8809 22.1841 18.1471 21.8013L14 19.6001L9.82097 21.8013C9.08724 22.1841 8.19402 21.5461 8.32162 20.7167L9.11915 16.091L5.76954 12.8052C5.16342 12.1991 5.48243 11.1782 6.31185 11.0506L11.0013 10.3807L13.0749 6.13788Z" fill="#FF9A60"/>
<path opacity="0.9" d="M43.0749 6.13788C43.4577 5.37226 44.5423 5.40416 44.8932 6.13788L46.9987 10.3807L51.6563 11.0506C52.4857 11.1782 52.8047 12.1991 52.1986 12.8052L48.849 16.091L49.6465 20.7167C49.7741 21.5461 48.8809 22.1841 48.1471 21.8013L44 19.6001L39.821 21.8013C39.0872 22.1841 38.194 21.5461 38.3216 20.7167L39.1191 16.091L35.7695 12.8052C35.1634 12.1991 35.4824 11.1782 36.3118 11.0506L41.0013 10.3807L43.0749 6.13788Z" fill="#FF9A60"/>
<path opacity="0.9" d="M73.0749 6.13788C73.4577 5.37226 74.5423 5.40416 74.8932 6.13788L76.9987 10.3807L81.6563 11.0506C82.4857 11.1782 82.8047 12.1991 82.1986 12.8052L78.849 16.091L79.6465 20.7167C79.7741 21.5461 78.8809 22.1841 78.1471 21.8013L74 19.6001L69.821 21.8013C69.0872 22.1841 68.194 21.5461 68.3216 20.7167L69.1191 16.091L65.7695 12.8052C65.1634 12.1991 65.4824 11.1782 66.3119 11.0506L71.0013 10.3807L73.0749 6.13788Z" fill="#FF9A60"/>
<path opacity="0.9" d="M103.075 6.13788C103.458 5.37226 104.542 5.40416 104.893 6.13788L106.999 10.3807L111.656 11.0506C112.486 11.1782 112.805 12.1991 112.199 12.8052L108.849 16.091L109.646 20.7167C109.774 21.5461 108.881 22.1841 108.147 21.8013L104 19.6001L99.821 21.8013C99.0872 22.1841 98.194 21.5461 98.3216 20.7167L99.1191 16.091L95.7695 12.8052C95.1634 12.1991 95.4824 11.1782 96.3119 11.0506L101.001 10.3807L103.075 6.13788Z" fill="#FF9A60"/>
<path opacity="0.9" d="M133.075 6.13788C133.458 5.37226 134.542 5.40416 134.893 6.13788L136.999 10.3807L141.656 11.0506C142.486 11.1782 142.805 12.1991 142.199 12.8052L138.849 16.091L139.646 20.7167C139.774 21.5461 138.881 22.1841 138.147 21.8013L134 19.6001L129.821 21.8013C129.087 22.1841 128.194 21.5461 128.322 20.7167L129.119 16.091L125.77 12.8052C125.163 12.1991 125.482 11.1782 126.312 11.0506L131.001 10.3807L133.075 6.13788Z" fill="#FF9A60"/>
</svg>
